<svg width="22" height="22" viewBox="0 0 22 22" fill="none" xmlns="http://www.w3.org/2000/svg">
<path d="M11 5.5C11.3797 5.5 11.6875 5.8078 11.6875 6.1875V10.3125H15.8125C16.1922 10.3125 16.5 10.6203 16.5 11C16.5 11.3797 16.1922 11.6875 15.8125 11.6875H11.6875V15.8125C11.6875 16.1922 11.3797 16.5 11 16.5C10.6203 16.5 10.3125 16.1922 10.3125 15.8125V11.6875H6.1875C5.8078 11.6875 5.5 11.3797 5.5 11C5.5 10.6203 5.8078 10.3125 6.1875 10.3125H10.3125V6.1875C10.3125 5.8078 10.6203 5.5 11 5.5Z" fill="white" stroke="white" stroke-width="0.5" stroke-linecap="round"/>
</svg>
